<svg width="28" height="28" viewBox="0 0 28 28" fill="none" xmlns="http://www.w3.org/2000/svg">
<g clip-path="url(#clip0_1_21)">
<path d="M14 28C21.732 28 28 21.732 28 14C28 6.26801 21.732 0 14 0C6.26801 0 0 6.26801 0 14C0 21.732 6.26801 28 14 28Z" fill="#47B0D3"/>
<path d="M1.86665 14C1.86665 6.58175 7.63662 0.512094 14.9333 0.0316641C14.6248 0.011375 14.3137 0 14 0C6.26801 0 0 6.26801 0 14C0 21.732 6.26801 28 14 28C14.3137 28 14.6247 27.9886 14.9334 27.9683C7.63667 27.4879 1.86665 21.4182 1.86665 14Z" fill="#3298BA"/>
<path d="M20.7956 5.9639C20.6597 5.87148 20.4852 5.85748 20.3363 5.92677L5.29251 12.9299C5.0282 13.053 4.86119 13.3222 4.8678 13.6136C4.8742 13.8994 5.04718 14.1561 5.30886 14.2707L19.1783 20.3113C19.6414 20.5218 20.1867 20.1904 20.2165 19.6849L20.9993 6.37723C21.0088 6.21328 20.9315 6.05621 20.7956 5.9639Z" fill="#E5E5E5"/>
<path d="M9.38608 16.0465L10.3235 22.3125L20.7358 5.92987L9.38608 16.0465Z" fill="#CCCCCC"/>
<path d="M20.3365 5.92674L5.29252 12.9299C5.03347 13.0505 4.86454 13.3193 4.86766 13.605C4.87083 13.8912 5.04681 14.156 5.30882 14.2706L9.38616 16.0464L20.7358 5.92986C20.6108 5.86959 20.4643 5.86724 20.3365 5.92674Z" fill="white"/>
<path d="M11.5619 16.9941L10.3235 22.3125L20.7358 5.92987L11.5619 16.9941Z" fill="#E5E5E5"/>
<path d="M20.7956 5.96389C20.7764 5.95082 20.7563 5.93971 20.7358 5.92987L11.5619 16.9941L19.1783 20.3113C19.6413 20.5218 20.1866 20.1904 20.2164 19.6849L20.9992 6.37721C21.0088 6.21326 20.9315 6.0562 20.7956 5.96389Z" fill="white"/>
</g>
<defs>
<clipPath id="clip0_1_21">
<rect width="28" height="28" fill="white"/>
</clipPath>
</defs>
</svg>
