<svg width="23" height="23" viewBox="0 0 23 23" fill="none" xmlns="http://www.w3.org/2000/svg">
<path d="M3.45813 16.455L3.47928 16.4428L7.64052 16.6168C7.79374 16.6216 7.92435 16.6769 8.03236 16.7826C8.14037 16.8883 8.19551 17.0245 8.19777 17.1912L8.18903 17.4203C8.19731 17.5649 8.13297 17.6814 7.99601 17.7698C7.85905 17.8582 7.71396 17.8999 7.56074 17.895L4.89948 17.7792C4.92975 17.7991 4.96054 17.828 4.99184 17.8659C5.02314 17.9039 5.05242 17.9383 5.07969 17.9692C5.10695 18.0002 5.13571 18.0256 5.16598 18.0454C5.76967 18.6677 6.44579 19.1876 7.19433 19.6049C7.94287 20.0222 8.73408 20.3262 9.56797 20.5169C10.4019 20.7076 11.2512 20.7867 12.116 20.7541C14.658 20.6308 16.7854 19.6266 18.4982 17.7415C18.9169 17.2944 19.2806 16.809 19.5892 16.2854C19.8979 15.7618 20.1527 15.218 20.3534 14.654C20.5542 14.09 20.6975 13.5078 20.7833 12.9075C20.8691 12.3072 20.9015 11.6957 20.8804 11.0731C20.8761 10.8702 20.9423 10.692 21.0792 10.5383C21.2161 10.3846 21.3898 10.3029 21.6005 10.2933C21.8111 10.2837 21.9932 10.3466 22.1466 10.4821C22.3 10.6176 22.3789 10.7868 22.3832 10.9896C22.4438 12.4296 22.2377 13.8228 21.7649 15.1693C21.2921 16.5158 20.5756 17.709 19.6155 18.7487C18.6494 19.8106 17.5262 20.6411 16.246 21.2402C14.9657 21.8394 13.614 22.1764 12.1908 22.2512C10.6729 22.3248 9.20639 22.0886 7.79138 21.5426C6.37637 20.9966 5.14291 20.1872 4.09101 19.1141C4.06883 19.1083 4.05369 19.0984 4.04561 19.0844L4.02136 19.0423L4.11532 21.2565C4.1236 21.4011 4.07439 21.5275 3.9677 21.6358C3.86102 21.7441 3.73106 21.7958 3.57784 21.7909L3.37226 21.8256C3.02953 21.8181 2.84886 21.6517 2.83024 21.3263L2.65191 17.2565L2.63639 16.9854C2.64221 16.8327 2.69847 16.7022 2.80516 16.5939C2.91184 16.4856 3.0418 16.434 3.19502 16.4388L3.45813 16.455ZM10.6259 0.638396C12.1439 0.564843 13.6043 0.79055 15.0072 1.31552C16.41 1.84048 17.6374 2.63947 18.6893 3.71248C18.8044 3.81408 18.9518 3.97169 19.1315 4.18532L19.0074 2.01656C19.0051 1.84983 19.0553 1.70883 19.158 1.59356C19.2606 1.47829 19.3845 1.41609 19.5296 1.40698L19.7352 1.3723C19.83 1.37361 19.9207 1.40056 20.0075 1.45315C20.0942 1.50574 20.1619 1.57405 20.2104 1.65806C20.2589 1.74208 20.2933 1.83424 20.3136 1.93453L20.4919 6.00437L20.5075 6.27547C20.5097 6.44219 20.4555 6.57619 20.3448 6.67746C20.234 6.77873 20.1021 6.82692 19.9488 6.82204L19.6767 6.83912L19.6646 6.81812L15.5033 6.64412C15.3501 6.63923 15.2195 6.58395 15.1115 6.47828C15.0035 6.3726 14.9524 6.24341 14.9582 6.09068L14.9669 5.8616C14.9587 5.71701 15.021 5.59702 15.1539 5.50161C15.2868 5.4062 15.4299 5.36094 15.5831 5.36583L18.2444 5.48166C18.0242 5.19803 17.8142 4.96454 17.6144 4.7812C17.3519 4.52198 17.0794 4.27791 16.7968 4.04898C16.5142 3.82004 16.2166 3.61383 15.9038 3.43032C15.5911 3.24681 15.2703 3.08195 14.9415 2.93573C14.6127 2.78951 14.2758 2.66193 13.9309 2.553C13.586 2.44406 13.2351 2.35727 12.8782 2.29262C12.5213 2.22797 12.1619 2.18343 11.8 2.159C11.4381 2.13457 11.0716 2.12674 10.7007 2.13552C8.15874 2.25887 6.03134 3.26308 4.3185 5.14816C3.48925 6.05635 2.8668 7.07851 2.45116 8.21465C2.03552 9.35079 1.85178 10.5304 1.89994 11.7535C1.90427 11.9564 1.838 12.1347 1.70114 12.2884C1.56428 12.4421 1.387 12.5258 1.16929 12.5394C0.864917 12.5658 0.635928 12.446 0.482323 12.1799C0.417648 12.0679 0.385214 11.9466 0.385023 11.816C0.318432 10.3982 0.527595 9.0265 1.01251 7.701C1.49743 6.3755 2.22698 5.18881 3.20118 4.14093C5.11931 2.02531 7.50352 0.863493 10.3538 0.655485L10.6259 0.638396Z" fill="white"/>
</svg>
